<?xml version="1.0" encoding="UTF-8" standalone="no"?>
<!-- Created with Inkscape (http://www.inkscape.org/) -->

<svg
   xmlns:dc="http://purl.org/dc/elements/1.1/"
   xmlns:cc="http://creativecommons.org/ns#"
   xmlns:rdf="http://www.w3.org/1999/02/22-rdf-syntax-ns#"
   xmlns:svg="http://www.w3.org/2000/svg"
   xmlns="http://www.w3.org/2000/svg"
   xmlns:sodipodi="http://sodipodi.sourceforge.net/DTD/sodipodi-0.dtd"
   xmlns:inkscape="http://www.inkscape.org/namespaces/inkscape"
   version="1.1"
   id="svg64"
   width="538"
   height="481"
   viewBox="0 0 538 481"
   sodipodi:docname="mapa.svg"
   inkscape:version="0.92.1 r">
  <metadata
     id="metadata70">
    <rdf:RDF>
      <cc:Work
         rdf:about="">
        <dc:format>image/svg+xml</dc:format>
        <dc:type
           rdf:resource="http://purl.org/dc/dcmitype/StillImage" />
      </cc:Work>
    </rdf:RDF>
  </metadata>
  <defs
     id="defs68">
    <inkscape:path-effect
       effect="bspline"
       id="path-effect4977"
       is_visible="true"
       weight="33.333333"
       steps="2"
       helper_size="0"
       apply_no_weight="true"
       apply_with_weight="true"
       only_selected="false" />
    <inkscape:path-effect
       effect="bspline"
       id="path-effect4973"
       is_visible="true"
       weight="33.333333"
       steps="2"
       helper_size="0"
       apply_no_weight="true"
       apply_with_weight="true"
       only_selected="false" />
    <inkscape:path-effect
       effect="bspline"
       id="path-effect4969"
       is_visible="true"
       weight="33.333333"
       steps="2"
       helper_size="0"
       apply_no_weight="true"
       apply_with_weight="true"
       only_selected="false" />
    <inkscape:path-effect
       effect="bspline"
       id="path-effect4965"
       is_visible="true"
       weight="33.333333"
       steps="2"
       helper_size="0"
       apply_no_weight="true"
       apply_with_weight="true"
       only_selected="false" />
    <inkscape:path-effect
       effect="bspline"
       id="path-effect4946"
       is_visible="true"
       weight="33.333333"
       steps="2"
       helper_size="0"
       apply_no_weight="true"
       apply_with_weight="true"
       only_selected="false" />
    <inkscape:path-effect
       effect="bspline"
       id="path-effect4942"
       is_visible="true"
       weight="33.333333"
       steps="2"
       helper_size="0"
       apply_no_weight="true"
       apply_with_weight="true"
       only_selected="false" />
    <inkscape:path-effect
       effect="bspline"
       id="path-effect4914"
       is_visible="true"
       weight="33.333333"
       steps="2"
       helper_size="0"
       apply_no_weight="true"
       apply_with_weight="true"
       only_selected="false" />
    <inkscape:path-effect
       effect="spiro"
       id="path-effect4910"
       is_visible="true" />
  </defs>
  <sodipodi:namedview
     pagecolor="#ffffff"
     bordercolor="#666666"
     borderopacity="1"
     objecttolerance="10"
     gridtolerance="10"
     guidetolerance="10"
     inkscape:pageopacity="0"
     inkscape:pageshadow="2"
     inkscape:window-width="1600"
     inkscape:window-height="852"
     id="namedview66"
     showgrid="false"
     inkscape:zoom="0.1733368"
     inkscape:cx="2350.0014"
     inkscape:cy="88.178307"
     inkscape:window-x="0"
     inkscape:window-y="0"
     inkscape:window-maximized="1"
     inkscape:current-layer="svg64" />
  <g
     id="g4783"
     transform="translate(-809.22971,-235.17843)" />
  <g
     id="g74"
     transform="matrix(1.3342105,0,0,1.2369792,811.51717,-220.5466)"
     style="fill:#b3b3b3" />
  <flowRoot
     xml:space="preserve"
     id="flowRoot5034"
     style="fill:black;fill-opacity:1;stroke:none;font-family:sans-serif;font-style:normal;font-weight:normal;font-size:10.66666667px;line-height:1.25;letter-spacing:0px;word-spacing:0px;"><flowRegion
       id="flowRegion5036"
       style="font-size:10.66666667px;"><rect
         id="rect5038"
         width="62.01799"
         height="56.609444"
         x="126.55997"
         y="417.53973"
         style="font-size:10.66666667px;" /></flowRegion><flowPara
       id="flowPara5040" /></flowRoot>  <text
     xml:space="preserve"
     style="font-style:normal;font-weight:normal;font-size:40px;line-height:1.25;font-family:sans-serif;letter-spacing:0px;word-spacing:0px;fill:#000000;fill-opacity:1;stroke:none"
     x="149.99699"
     y="418.26086"
     id="text5056"><tspan
       sodipodi:role="line"
       id="tspan5054"
       x="149.99699"
       y="453.65149" /><tspan
       sodipodi:role="line"
       x="149.99699"
       y="503.65149"
       id="tspan5058" /></text>
  <g
     transform="matrix(0.49169578,0,0,0.5276316,417.2433,121.90207)"
     id="g507">
    <g
       style="fill:#b3b3b3"
       id="g455"
       transform="matrix(1.3342105,0,0,1.2369792,2738.632,105.38141)">
      <path
         id="path453"
         d="M -2265.9481,-198.896 A 281.59999,292.07514 0 0 0 -2547.5477,93.178944 281.59999,292.07514 0 0 0 -2265.9481,385.2539 281.59999,292.07514 0 0 0 -1984.3485,93.178944 281.59999,292.07514 0 0 0 -2265.9481,-198.896 Z m 2.5904,124.18027 a 155.33269,170.95524 0 0 1 155.3328,170.955638 155.33269,170.95524 0 0 1 -155.3328,170.955632 155.33269,170.95524 0 0 1 -155.3314,-170.955632 155.33269,170.95524 0 0 1 155.3314,-170.955638 z"
         style="fill:#b3b3b3;stroke:#705b2a;stroke-width:3.31454182;stroke-opacity:1"
         inkscape:connector-curvature="0" />
    </g>
    <path
       transform="matrix(1.3342105,0,0,1.2369792,811.51717,-220.5466)"
       inkscape:connector-curvature="0"
       id="path457"
       d="m -878.11624,89.321863 a 69.265612,71.31502 0 0 1 -69.26561,71.315007 69.265612,71.31502 0 0 1 -69.26565,-71.315007 69.265612,71.31502 0 0 1 69.26565,-71.315019 69.265612,71.31502 0 0 1 69.26561,71.315019 z"
       style="fill:#cccccc;fill-opacity:1;stroke-width:1.02904379" />
    <path
       transform="matrix(1.3342105,0,0,1.2369792,811.51717,-220.5466)"
       sodipodi:nodetypes="cccccccccc"
       inkscape:connector-curvature="0"
       id="path459"
       d="m -946.30793,7.5957123 c -42.59301,1.044e-4 -77.12137,36.6946157 -77.12127,81.9594817 -10e-5,45.264866 34.52826,81.959356 77.12127,81.959456 42.59302,-10e-5 77.12139,-36.69459 77.12129,-81.959456 10e-5,-45.264866 -34.52827,-81.9593773 -77.12129,-81.9594817 z m -1.09171,10.5081037 c 38.22046,-2.4e-5 69.20435,31.922486 69.20461,71.30108 -2.5e-4,39.378594 -30.98415,71.301084 -69.20461,71.301084 -38.22045,0 -69.20436,-31.92249 -69.20456,-71.301084 2e-4,-39.378594 30.98411,-71.301104 69.20456,-71.30108 z"
       style="fill:#2c5aa0;stroke-width:0.91885412" />
    <path
       transform="matrix(1.3342105,0,0,1.2369792,811.51717,-220.5466)"
       sodipodi:nodetypes="cccccccccc"
       inkscape:connector-curvature="0"
       id="path461"
       d="m -947.39964,18.103816 c -38.22045,-2.4e-5 -69.20436,31.922486 -69.20456,71.30108 2e-4,39.378594 30.98411,71.301084 69.20456,71.301084 38.22046,0 69.20435,-31.92249 69.20461,-71.301084 -2.6e-4,-39.378594 -30.98415,-71.301104 -69.20461,-71.30108 z m 0,9.658339 c 31.98939,3.48e-4 57.92162,28.409883 57.92123,63.454405 -1.9e-4,35.04407 -25.93226,63.45288 -57.92123,63.45323 -31.98898,0 -57.92106,-28.40916 -57.92126,-63.45323 -3e-4,-35.044522 25.93188,-63.45405 57.92126,-63.454405 z"
       style="fill:#000080;fill-opacity:1;stroke-width:0.8118518" />
    <g
       style="fill:#b3b3b3"
       id="g499"
       transform="matrix(0.44415258,0,0,0.43064919,387.15825,-428.63096)">
      <path
         inkscape:connector-curvature="0"
         id="path463"
         d="m -858.69301,735.73187 a 208.07018,204.84236 0 0 1 -208.07019,204.84236 208.07018,204.84236 0 0 1 -208.0702,-204.84236 208.07018,204.84236 0 0 1 208.0702,-204.84236 208.07018,204.84236 0 0 1 208.07019,204.84236 z"
         style="fill:#cccccc;fill-opacity:1;stroke-width:3.02272987" />
      <path
         style="fill:#000080;stroke-width:2.69905686"
         d="m -1063.5371,500.98497 c -127.9472,3e-4 -231.6686,105.40012 -231.6683,235.41708 -3e-4,130.01695 103.7211,235.41668 231.6683,235.41698 127.94702,-3e-4 231.66841,-105.40003 231.6681,-235.41698 3.1e-4,-130.01696 -103.72108,-235.41678 -231.6681,-235.41708 z m -3.2795,30.18305 c 114.81218,-7e-5 207.8861,91.69285 207.88688,204.80232 -7.6e-4,113.10947 -93.0747,204.80233 -207.88688,204.80233 -114.8122,0 -207.8862,-91.69286 -207.8869,-204.80233 7e-4,-113.10947 93.0747,-204.80239 207.8869,-204.80232 z"
         id="path465"
         inkscape:connector-curvature="0"
         sodipodi:nodetypes="cccccccccc" />
      <path
         style="fill:#00aad4;stroke-width:2.38474655"
         d="m -1066.8166,531.16802 c -114.8122,-7e-5 -207.8862,91.69285 -207.8869,204.80232 7e-4,113.10948 93.0747,204.80233 207.8869,204.80233 114.81218,0 207.8861,-91.69285 207.88688,-204.80233 -7.8e-4,-113.10947 -93.0747,-204.80239 -207.88688,-204.80232 z m 0,27.74222 c 96.09438,10e-4 173.99339,81.60339 173.9922,182.26385 -5.7e-4,100.65916 -77.89912,182.25948 -173.9922,182.26048 -96.0932,0 -173.9917,-81.60132 -173.9923,-182.26048 -10e-4,-100.66046 77.8979,-182.26283 173.9923,-182.26385 z"
         id="path467"
         inkscape:connector-curvature="0"
         sodipodi:nodetypes="cccccccccc" />
      <path
         inkscape:connector-curvature="0"
         id="path469"
         d="m -1741.1183,2307.8186 a 208.07018,204.84236 0 0 1 -208.0702,204.8423 208.07018,204.84236 0 0 1 -208.0702,-204.8423 208.07018,204.84236 0 0 1 208.0702,-204.8424 208.07018,204.84236 0 0 1 208.0702,204.8424 z"
         style="fill:#cccccc;fill-opacity:1;stroke-width:3.02272987" />
      <path
         sodipodi:nodetypes="cccccccccc"
         inkscape:connector-curvature="0"
         id="path471"
         d="m -1945.9625,2073.0717 c -127.9471,3e-4 -231.6685,105.4001 -231.6682,235.4171 -3e-4,130.0169 103.7211,235.4167 231.6682,235.417 127.9471,-3e-4 231.6685,-105.4001 231.6682,-235.417 3e-4,-130.017 -103.7211,-235.4168 -231.6682,-235.4171 z m -3.2794,30.1831 c 114.8122,-1e-4 207.8861,91.6928 207.8869,204.8023 -8e-4,113.1094 -93.0747,204.8023 -207.8869,204.8023 -114.8122,0 -207.8862,-91.6929 -207.8869,-204.8023 7e-4,-113.1095 93.0747,-204.8024 207.8869,-204.8023 z"
         style="fill:#6f918a;stroke-width:2.69905686" />
      <path
         sodipodi:nodetypes="cccccccccc"
         inkscape:connector-curvature="0"
         id="path473"
         d="m -1949.2419,2103.2548 c -114.8122,-1e-4 -207.8862,91.6928 -207.8869,204.8023 7e-4,113.1095 93.0747,204.8023 207.8869,204.8023 114.8122,0 207.8861,-91.6928 207.8869,-204.8023 -8e-4,-113.1095 -93.0747,-204.8024 -207.8869,-204.8023 z m 0,27.7422 c 96.0944,0 173.9934,81.6034 173.9922,182.2638 -6e-4,100.6592 -77.8991,182.2595 -173.9922,182.2605 -96.0932,0 -173.9917,-81.6013 -173.9923,-182.2605 0,-100.6604 77.8979,-182.2628 173.9923,-182.2638 z"
         style="fill:#00002b;stroke-width:2.38474655" />
      <path
         inkscape:connector-curvature="0"
         style="fill:#cccccc;fill-opacity:1;stroke-width:3.02272987"
         d="m -917.43227,2303.7983 a 208.07018,204.84236 0 0 1 -208.07013,204.8424 208.07018,204.84236 0 0 1 -208.0702,-204.8424 208.07018,204.84236 0 0 1 208.0702,-204.8423 208.07018,204.84236 0 0 1 208.07013,204.8423 z"
         id="path475" />
      <path
         style="fill:#217867;stroke-width:2.69905686"
         d="m -1122.2764,2069.0514 c -127.9472,3e-4 -231.6686,105.4001 -231.6683,235.4171 -3e-4,130.0169 103.7211,235.4167 231.6683,235.417 127.94702,-3e-4 231.66842,-105.4001 231.66811,-235.417 3.1e-4,-130.017 -103.72109,-235.4168 -231.66811,-235.4171 z m -3.2795,30.1831 c 114.8122,-1e-4 207.8861,91.6928 207.88688,204.8023 -7.6e-4,113.1095 -93.07468,204.8023 -207.88688,204.8023 -114.8122,0 -207.8862,-91.6928 -207.8869,-204.8023 7e-4,-113.1095 93.0747,-204.8024 207.8869,-204.8023 z"
         id="path477"
         inkscape:connector-curvature="0"
         sodipodi:nodetypes="cccccccccc" />
      <path
         style="fill:#6f918a;stroke-width:2.38474655"
         d="m -1125.5559,2099.2345 c -114.8122,-1e-4 -207.8862,91.6928 -207.8869,204.8023 7e-4,113.1095 93.0747,204.8023 207.8869,204.8023 114.8122,0 207.8861,-91.6928 207.88688,-204.8023 -7.8e-4,-113.1095 -93.07468,-204.8024 -207.88688,-204.8023 z m 0,27.7422 c 96.0944,10e-4 173.9934,81.6034 173.9922,182.2638 -5.6e-4,100.6592 -77.8991,182.2595 -173.9922,182.2605 -96.0932,0 -173.9917,-81.6013 -173.9923,-182.2605 -10e-4,-100.6604 77.8979,-182.2628 173.9923,-182.2638 z"
         id="path479"
         inkscape:connector-curvature="0"
         sodipodi:nodetypes="cccccccccc" />
      <path
         inkscape:connector-curvature="0"
         id="path481"
         d="m -2163.2621,1510.7373 a 208.07018,204.84236 0 0 1 -208.0702,204.8424 208.07018,204.84236 0 0 1 -208.0702,-204.8424 208.07018,204.84236 0 0 1 208.0702,-204.8423 208.07018,204.84236 0 0 1 208.0702,204.8423 z"
         style="fill:#cccccc;fill-opacity:1;stroke-width:3.02272987" />
      <path
         sodipodi:nodetypes="cccccccccc"
         inkscape:connector-curvature="0"
         id="path483"
         d="m -2368.1063,1275.9905 c -127.9471,3e-4 -231.6685,105.4001 -231.6682,235.417 -3e-4,130.017 103.7211,235.4167 231.6682,235.4171 127.9471,-3e-4 231.6685,-105.4001 231.6682,-235.4171 3e-4,-130.0169 -103.7211,-235.4167 -231.6682,-235.417 z m -3.2794,30.183 c 114.8122,-1e-4 207.8861,91.6929 207.8869,204.8023 -8e-4,113.1095 -93.0747,204.8024 -207.8869,204.8024 -114.8122,0 -207.8862,-91.6929 -207.8869,-204.8024 7e-4,-113.1094 93.0747,-204.8024 207.8869,-204.8023 z"
         style="fill:#00002b;fill-opacity:1;stroke-width:2.69905686" />
      <path
         sodipodi:nodetypes="cccccccccc"
         inkscape:connector-curvature="0"
         id="path485"
         d="m -2371.3857,1306.1735 c -114.8122,-1e-4 -207.8862,91.6929 -207.8869,204.8023 7e-4,113.1095 93.0747,204.8024 207.8869,204.8024 114.8122,0 207.8861,-91.6929 207.8869,-204.8024 -8e-4,-113.1094 -93.0747,-204.8024 -207.8869,-204.8023 z m 0,27.7422 c 96.0944,10e-4 173.9934,81.6034 173.9922,182.2639 -5e-4,100.6591 -77.8991,182.2595 -173.9922,182.2605 -96.0932,0 -173.9917,-81.6014 -173.9923,-182.2605 -10e-4,-100.6605 77.8979,-182.2629 173.9923,-182.2639 z"
         style="fill:#2c5aa0;fill-opacity:1;stroke-width:2.38474655" />
      <path
         inkscape:connector-curvature="0"
         style="fill:#cccccc;fill-opacity:1;stroke-width:3.01020813"
         d="m -399.03815,1527.9337 a 207.48645,203.72029 0 0 1 -207.48644,203.7203 207.48645,203.72029 0 0 1 -207.48644,-203.7203 207.48645,203.72029 0 0 1 207.48644,-203.7203 207.48645,203.72029 0 0 1 207.48644,203.7203 z"
         id="path487" />
      <path
         style="fill:#00aad4;fill-opacity:1;stroke-width:2.84855628"
         d="m -604.46602,1277.4778 c -136.6517,3e-4 -247.42944,109.9214 -247.42913,245.5158 -3.1e-4,135.5941 110.77743,245.5152 247.42913,245.5155 136.65152,-3e-4 247.42928,-109.9214 247.42896,-245.5155 3.2e-4,-135.5944 -110.77744,-245.5155 -247.42896,-245.5158 z m -3.50261,31.4779 c 122.62309,-10e-5 222.02901,95.626 222.02985,213.5876 -8.2e-4,117.9615 -99.40676,213.5877 -222.02985,213.5877 -122.62309,0 -222.02911,-95.6262 -222.02985,-213.5877 7.4e-4,-117.9616 99.40676,-213.5877 222.02985,-213.5876 z"
         id="path489"
         inkscape:connector-curvature="0"
         sodipodi:nodetypes="cccccccccc" />
      <path
         style="fill:#217867;stroke-width:2.60048199"
         d="m -607.96863,1308.9557 c -128.15324,-10e-5 -232.04235,97.6825 -232.04313,218.1808 7.8e-4,120.4982 103.88989,218.1807 232.04313,218.1807 128.15324,0 232.04225,-97.6825 232.04312,-218.1807 -8.7e-4,-120.4983 -103.88988,-218.1809 -232.04312,-218.1808 z m 0,29.5545 c 107.26046,0 194.21125,86.934 194.20992,194.1699 -6.3e-4,107.2346 -86.95092,194.1654 -194.20992,194.1664 -107.25912,0 -194.20935,-86.9318 -194.20999,-194.1664 -10e-4,-107.2359 86.94954,-194.1689 194.20999,-194.1699 z"
         id="path491"
         inkscape:connector-curvature="0"
         sodipodi:nodetypes="cccccccccc" />
      <path
         style="fill:none;stroke:#6f918a;stroke-width:68.59513855;stroke-linecap:butt;stroke-linejoin:miter;stroke-miterlimit:4;stroke-dasharray:none;stroke-opacity:1"
         d="m -1307.5654,2332.511 c -73.3506,13.6492 -146.7038,27.299 -218.415,28.5505 -71.7112,1.2516 -140.7065,-9.725 -210.2402,-20.7873"
         id="path493"
         inkscape:connector-curvature="0"
         inkscape:path-effect="#path-effect4969"
         inkscape:original-d="m -1307.5654,2332.511 c -73.3509,13.6474 -146.7041,27.2971 -220.0596,40.9492 -70.0662,-11.1497 -139.0615,-22.1264 -208.5956,-33.186"
         sodipodi:nodetypes="ccc" />
      <path
         style="fill:none;stroke:#00002b;stroke-width:65.49312592;stroke-linecap:butt;stroke-linejoin:miter;stroke-miterlimit:4;stroke-dasharray:none;stroke-opacity:1"
         d="m -2081.7695,2176.0331 c -61.301,-67.1509 -122.2295,-133.8939 -167.3294,-208.3214 -45.0998,-74.4276 -74.1845,-156.3347 -103.2688,-238.2406"
         id="path495"
         inkscape:connector-curvature="0"
         inkscape:path-effect="#path-effect4973"
         inkscape:original-d="m -2081.7695,2176.0331 c -61.1125,-67.323 -122.2272,-133.896 -183.3441,-200.8407 -29.0825,-81.9092 -58.1672,-163.8163 -87.2541,-245.7213" />
      <path
         style="fill:none;stroke:#2c5aa0;stroke-width:65.18217468;stroke-linecap:butt;stroke-linejoin:miter;stroke-miterlimit:4;stroke-dasharray:none;stroke-opacity:1"
         d="m -2360.4017,1320.0088 c 39.0744,-89.9981 78.1477,-179.9934 128.0359,-254.4725 49.8883,-74.4791 110.5941,-133.44588 171.2958,-192.4087"
         id="path497"
         inkscape:connector-curvature="0"
         inkscape:path-effect="#path-effect4977"
         inkscape:original-d="m -2360.4017,1320.0088 c 39.0755,-89.9976 78.1487,-179.993 117.2198,-269.9862 60.7043,-58.96548 121.4102,-117.93215 182.1119,-176.895" />
    </g>
    <path
       style="fill:none;stroke:#00aad4;stroke-width:28.85933304;stroke-linecap:butt;stroke-linejoin:miter;stroke-miterlimit:4;stroke-dasharray:none;stroke-opacity:1"
       d="m -27.977141,-55.751784 c 22.2332448,27.39328 44.466561,54.78664706 62.883655,85.724861 18.417095,30.938215 33.018084,65.42164 47.619262,99.905513"
       id="path501"
       inkscape:connector-curvature="0"
       inkscape:path-effect="#path-effect4942"
       inkscape:original-d="M -27.977141,-55.751784 C -5.7428491,-28.359354 16.490466,-0.96598629 38.722817,26.428331 53.32478,60.910796 67.925766,95.394222 82.525776,129.87859"
       sodipodi:nodetypes="ccc" />
    <path
       style="fill:none;stroke:#217867;stroke-width:29.37046814;stroke-linecap:butt;stroke-linejoin:miter;stroke-miterlimit:4;stroke-dasharray:none;stroke-opacity:1"
       d="M 88.453423,311.55977 C 68.72322,351.71867 48.992436,391.87876 28.091054,423.55183 7.1896719,455.22489 -14.88143,478.40944 -36.95411,501.59565"
       id="path503"
       inkscape:connector-curvature="0"
       inkscape:path-effect="#path-effect4946"
       inkscape:original-d="m 88.453423,311.55977 c -19.729804,40.1591 -39.46058,80.31919 -59.192353,120.48026 -22.0713682,23.18489 -44.14246,46.36945 -66.21518,69.55562"
       sodipodi:nodetypes="ccc" />
    <path
       style="fill:none;stroke:#000080;stroke-width:30;stroke-linecap:butt;stroke-linejoin:miter;stroke-miterlimit:4;stroke-dasharray:none;stroke-opacity:1"
       d="m -372.10795,-139.17991 c 32.93317,-5.04815 65.8652,-10.09613 97.35422,-8.65381 31.48902,1.44232 61.53753,9.37513 91.58431,17.30748"
       id="path505"
       inkscape:connector-curvature="0"
       inkscape:path-effect="#path-effect4965"
       inkscape:original-d="m -372.10795,-139.17991 c 32.93304,-5.04898 65.86507,-10.09695 98.79611,-15.14393 30.04744,7.93126 60.09595,15.86407 90.14242,23.7976" />
  </g>
  <flowRoot
     transform="matrix(0.92625026,0,0,0.95790962,22.637702,3.2501239)"
     style="font-style:normal;font-weight:normal;font-size:12px;line-height:1.25;font-family:sans-serif;letter-spacing:0px;word-spacing:0px;fill:#000000;fill-opacity:1;stroke:none"
     id="flowRoot519"
     xml:space="preserve"><flowRegion
       style="font-size:12px"
       id="flowRegion511"><rect
         style="font-size:12px"
         y="411.41003"
         x="132.68965"
         height="81.128174"
         width="76.080215"
         id="rect509" /></flowRegion><flowPara
       style="font-style:normal;font-variant:normal;font-weight:bold;font-stretch:normal;font-size:10.66666698px;line-height:1;font-family:'Abril Fatface';-inkscape-font-specification:'Abril Fatface Bold';text-align:center;text-anchor:middle;fill:#0044aa;fill-opacity:1"
       id="flowPara513">SLI</flowPara><flowPara
       style="font-style:normal;font-variant:normal;font-weight:bold;font-stretch:normal;font-size:10.66666698px;line-height:1;font-family:'Abril Fatface';-inkscape-font-specification:'Abril Fatface Bold';text-align:center;text-anchor:middle;fill:#0044aa;fill-opacity:1"
       id="flowPara515">Invesment</flowPara><flowPara
       style="font-style:normal;font-variant:normal;font-weight:bold;font-stretch:normal;font-size:10.66666698px;line-height:2;font-family:'Abril Fatface';-inkscape-font-specification:'Abril Fatface Bold';text-align:center;text-anchor:middle;fill:#0044aa;fill-opacity:1"
       id="flowPara517">Solutions</flowPara></flowRoot>  <flowRoot
     transform="matrix(0.92625026,0,0,0.95790962,-67.449558,-169.12827)"
     style="font-style:normal;font-weight:normal;font-size:12px;line-height:1.25;font-family:sans-serif;letter-spacing:0px;word-spacing:0px;fill:#000000;fill-opacity:1;stroke:none"
     id="flowRoot529"
     xml:space="preserve"><flowRegion
       style="font-size:12px"
       id="flowRegion523"><rect
         style="font-size:12px"
         y="411.41003"
         x="132.68965"
         height="81.128174"
         width="76.080215"
         id="rect521" /></flowRegion><flowPara
       style="font-style:normal;font-variant:normal;font-weight:bold;font-stretch:normal;font-size:11.32406321px;line-height:1;font-family:'Abril Fatface';-inkscape-font-specification:'Abril Fatface Bold';text-align:center;text-anchor:middle;fill:#0044aa;fill-opacity:1"
       id="flowPara525">Financial</flowPara><flowPara
       style="font-style:normal;font-variant:normal;font-weight:bold;font-stretch:normal;font-size:11.32406321px;line-height:1;font-family:'Abril Fatface';-inkscape-font-specification:'Abril Fatface Bold';text-align:center;text-anchor:middle;fill:#0044aa;fill-opacity:1"
       id="flowPara527">Guidance</flowPara></flowRoot>  <flowRoot
     transform="matrix(0.92625026,0,0,0.95790962,36.735222,-351.93118)"
     style="font-style:normal;font-weight:normal;font-size:12px;line-height:1.25;font-family:sans-serif;letter-spacing:0px;word-spacing:0px;fill:#000000;fill-opacity:1;stroke:none"
     id="flowRoot541"
     xml:space="preserve"><flowRegion
       style="font-size:12px"
       id="flowRegion533"><rect
         style="font-size:12px"
         y="411.41003"
         x="132.68965"
         height="81.128174"
         width="76.080215"
         id="rect531" /></flowRegion><flowPara
       style="font-style:normal;font-variant:normal;font-weight:bold;font-stretch:normal;font-size:11.32406321px;line-height:1;font-family:'Abril Fatface';-inkscape-font-specification:'Abril Fatface Bold';text-align:center;text-anchor:middle;fill:#0044aa;fill-opacity:1"
       id="flowPara535">Workplace</flowPara><flowPara
       id="flowPara537"
       style="font-style:normal;font-variant:normal;font-weight:bold;font-stretch:normal;font-size:11.32406321px;line-height:1;font-family:'Abril Fatface';-inkscape-font-specification:'Abril Fatface Bold';text-align:center;text-anchor:middle;fill:#0044aa;fill-opacity:1">pension and</flowPara><flowPara
       id="flowPara539"
       style="font-style:normal;font-variant:normal;font-weight:bold;font-stretch:normal;font-size:11.32406321px;line-height:1;font-family:'Abril Fatface';-inkscape-font-specification:'Abril Fatface Bold';text-align:center;text-anchor:middle;fill:#0044aa;fill-opacity:1">savings</flowPara></flowRoot>  <flowRoot
     transform="matrix(0.92625026,0,0,0.95790962,217.59782,-346.57945)"
     style="font-style:normal;font-weight:normal;font-size:12px;line-height:1.25;font-family:sans-serif;letter-spacing:0px;word-spacing:0px;fill:#000000;fill-opacity:1;stroke:none"
     id="flowRoot551"
     xml:space="preserve"><flowRegion
       style="font-size:12px"
       id="flowRegion545"><rect
         style="font-size:12px"
         y="411.41003"
         x="132.68965"
         height="81.128174"
         width="76.080215"
         id="rect543" /></flowRegion><flowPara
       id="flowPara547"
       style="font-style:normal;font-variant:normal;font-weight:bold;font-stretch:normal;font-size:11.32406321px;line-height:1;font-family:'Abril Fatface';-inkscape-font-specification:'Abril Fatface Bold';text-align:center;text-anchor:middle;fill:#0044aa;fill-opacity:1">Platform</flowPara><flowPara
       id="flowPara549"
       style="font-style:normal;font-variant:normal;font-weight:bold;font-stretch:normal;font-size:11.32406321px;line-height:1;font-family:'Abril Fatface';-inkscape-font-specification:'Abril Fatface Bold';text-align:center;text-anchor:middle;fill:#0044aa;fill-opacity:1">technology</flowPara></flowRoot>  <flowRoot
     transform="matrix(0.92625026,0,0,0.95790962,309.0378,-171.92399)"
     style="font-style:normal;font-weight:normal;font-size:12px;line-height:1.25;font-family:sans-serif;letter-spacing:0px;word-spacing:0px;fill:#000000;fill-opacity:1;stroke:none"
     id="flowRoot563"
     xml:space="preserve"><flowRegion
       style="font-size:12px"
       id="flowRegion555"><rect
         style="font-size:12px"
         y="411.41003"
         x="132.68965"
         height="81.128174"
         width="92.595924"
         id="rect553" /></flowRegion><flowPara
       id="flowPara557"
       style="font-style:normal;font-variant:normal;font-weight:bold;font-stretch:normal;font-size:9.9085553px;line-height:1;font-family:'Abril Fatface';-inkscape-font-specification:'Abril Fatface Bold';text-align:center;text-anchor:middle;fill:#0044aa;fill-opacity:1">Engagement and</flowPara><flowPara
       id="flowPara559"
       style="font-style:normal;font-variant:normal;font-weight:bold;font-stretch:normal;font-size:9.9085553px;line-height:1;font-family:'Abril Fatface';-inkscape-font-specification:'Abril Fatface Bold';text-align:center;text-anchor:middle;fill:#0044aa;fill-opacity:1">communications</flowPara><flowPara
       id="flowPara561"
       style="font-style:normal;font-variant:normal;font-weight:bold;font-stretch:normal;font-size:9.9085553px;line-height:1;font-family:'Abril Fatface';-inkscape-font-specification:'Abril Fatface Bold';text-align:center;text-anchor:middle;fill:#0044aa;fill-opacity:1">consultancy, 56ยบ</flowPara></flowRoot>  <flowRoot
     transform="matrix(0.92625026,0,0,0.95790962,182.62073,4.9149739)"
     style="font-style:normal;font-weight:normal;font-size:12px;line-height:1.25;font-family:sans-serif;letter-spacing:0px;word-spacing:0px;fill:#000000;fill-opacity:1;stroke:none"
     id="flowRoot575"
     xml:space="preserve"><flowRegion
       style="font-size:12px"
       id="flowRegion567"><rect
         style="font-size:12px"
         y="411.41003"
         x="132.68965"
         height="91.77475"
         width="122.3242"
         id="rect565" /></flowRegion><flowPara
       style="font-style:normal;font-variant:normal;font-weight:bold;font-stretch:normal;font-size:10.66666698px;line-height:1;font-family:'Abril Fatface';-inkscape-font-specification:'Abril Fatface Bold';text-align:center;text-anchor:middle;fill:#0044aa;fill-opacity:1"
       id="flowPara569">Financial </flowPara><flowPara
       id="flowPara571"
       style="font-style:normal;font-variant:normal;font-weight:bold;font-stretch:normal;font-size:10.66666698px;line-height:1;font-family:'Abril Fatface';-inkscape-font-specification:'Abril Fatface Bold';text-align:center;text-anchor:middle;fill:#0044aa;fill-opacity:1">advice</flowPara><flowPara
       id="flowPara573"
       style="font-style:normal;font-variant:normal;font-weight:bold;font-stretch:normal;font-size:10.66666698px;line-height:2;font-family:'Abril Fatface';-inkscape-font-specification:'Abril Fatface Bold';text-align:center;text-anchor:middle;fill:#0044aa;fill-opacity:1">form 1825</flowPara></flowRoot>  <flowRoot
     transform="matrix(0.92625026,0,0,0.95790962,77.241802,-169.38875)"
     style="font-style:normal;font-weight:normal;font-size:12px;line-height:1.25;font-family:sans-serif;letter-spacing:0px;word-spacing:0px;fill:#0044aa;fill-opacity:1;stroke:none"
     id="flowRoot585"
     xml:space="preserve"><flowRegion
       style="font-size:12px;fill:#0044aa"
       id="flowRegion579"><rect
         style="font-size:12px;fill:#0044aa"
         y="411.41003"
         x="132.68965"
         height="116.26186"
         width="175.17447"
         id="rect577" /></flowRegion><flowPara
       style="font-style:normal;font-variant:normal;font-weight:bold;font-stretch:normal;font-size:19.81711062px;line-height:1;font-family:'Abril Fatface';-inkscape-font-specification:'Abril Fatface Bold';text-align:center;text-anchor:middle;fill:#0044aa"
       id="flowPara581">Fully integrated</flowPara><flowPara
       id="flowPara583"
       style="font-style:normal;font-variant:normal;font-weight:bold;font-stretch:normal;font-size:19.81711062px;line-height:1;font-family:'Abril Fatface';-inkscape-font-specification:'Abril Fatface Bold';text-align:center;text-anchor:middle;fill:#0044aa">Solutions</flowPara></flowRoot></svg>
